<mxfile host="app.diagrams.net" modified="2024-07-10T16:40:08.678Z" agent="Mozilla/5.0 (Macintosh; Intel Mac OS X 10_15_7) AppleWebKit/537.36 (KHTML, like Gecko) Chrome/126.0.0.0 Safari/537.36" etag="xb3WF-XwEKw1rxRX9CWV" version="24.6.4" type="device">
  <diagram name="Page-1" id="_wYnx4aCaC5sIoW1HJCy">
    <mxGraphModel dx="1302" dy="763" grid="1" gridSize="10" guides="1" tooltips="1" connect="1" arrows="1" fold="1" page="1" pageScale="1" pageWidth="827" pageHeight="1169" math="0" shadow="0">
      <root>
        <mxCell id="0" />
        <mxCell id="1" parent="0" />
        <mxCell id="QFeDJpvVkkLOgswEeK5k-26" value="" style="rounded=0;whiteSpace=wrap;html=1;" vertex="1" parent="1">
          <mxGeometry x="20" y="10" width="790" height="330" as="geometry" />
        </mxCell>
        <mxCell id="QFeDJpvVkkLOgswEeK5k-3" value="" style="shape=image;verticalLabelPosition=bottom;labelBackgroundColor=default;verticalAlign=top;aspect=fixed;imageAspect=0;image=https://upload.wikimedia.org/wikipedia/commons/1/1d/ESP32_Espressif_ESP-WROOM-32_Dev_Board_%282%29.jpg;" vertex="1" parent="1">
          <mxGeometry x="180" y="21" width="102.35" height="80" as="geometry" />
        </mxCell>
        <mxCell id="QFeDJpvVkkLOgswEeK5k-5" value="" style="endArrow=classic;startArrow=classic;html=1;rounded=0;exitX=0.5;exitY=0;exitDx=0;exitDy=0;entryX=0;entryY=0.75;entryDx=0;entryDy=0;fillColor=#ffe6cc;strokeColor=#d79b00;strokeWidth=3;" edge="1" parent="1" source="QFeDJpvVkkLOgswEeK5k-1" target="QFeDJpvVkkLOgswEeK5k-3">
          <mxGeometry width="50" height="50" relative="1" as="geometry">
            <mxPoint x="320" y="280" as="sourcePoint" />
            <mxPoint x="370" y="230" as="targetPoint" />
          </mxGeometry>
        </mxCell>
        <mxCell id="QFeDJpvVkkLOgswEeK5k-4" value="" style="html=1;strokeWidth=1;shadow=0;dashed=0;shape=mxgraph.ios7.misc.bluetooth;fillColor=#007AFF;strokeColor=none;buttonText=;strokeColor2=#222222;fontColor=#222222;fontSize=8;verticalLabelPosition=bottom;verticalAlign=top;align=center;sketch=0;" vertex="1" parent="1">
          <mxGeometry x="130" y="103" width="30" height="30" as="geometry" />
        </mxCell>
        <mxCell id="QFeDJpvVkkLOgswEeK5k-6" style="edgeStyle=orthogonalEdgeStyle;rounded=0;orthogonalLoop=1;jettySize=auto;html=1;exitX=1;exitY=0.25;exitDx=0;exitDy=0;entryX=-0.01;entryY=0.202;entryDx=0;entryDy=0;entryPerimeter=0;startArrow=classic;startFill=1;fillColor=#ffe6cc;strokeColor=#d79b00;strokeWidth=3;" edge="1" parent="1" source="QFeDJpvVkkLOgswEeK5k-3" target="QFeDJpvVkkLOgswEeK5k-17">
          <mxGeometry relative="1" as="geometry">
            <mxPoint x="393.14999999999986" y="40.299999999999955" as="targetPoint" />
          </mxGeometry>
        </mxCell>
        <mxCell id="QFeDJpvVkkLOgswEeK5k-7" value="" style="html=1;strokeWidth=1;shadow=0;dashed=0;shape=mxgraph.ios7.misc.wifi;fillColor=#007AFF;strokeColor=none;buttonText=;strokeColor2=#222222;fontColor=#222222;fontSize=8;verticalLabelPosition=bottom;verticalAlign=top;align=center;sketch=0;" vertex="1" parent="1">
          <mxGeometry x="320" y="26.5" width="30" height="30" as="geometry" />
        </mxCell>
        <mxCell id="QFeDJpvVkkLOgswEeK5k-8" value="" style="shape=image;verticalLabelPosition=bottom;labelBackgroundColor=default;verticalAlign=top;aspect=fixed;imageAspect=0;image=https://upload.wikimedia.org/wikipedia/commons/6/6e/Home_Assistant_Logo.svg;" vertex="1" parent="1">
          <mxGeometry x="374.13" y="210" width="109" height="109" as="geometry" />
        </mxCell>
        <mxCell id="QFeDJpvVkkLOgswEeK5k-11" value="" style="endArrow=classic;startArrow=classic;html=1;rounded=0;entryX=0.5;entryY=1;entryDx=0;entryDy=0;exitX=0.5;exitY=0;exitDx=0;exitDy=0;fillColor=#d5e8d4;strokeColor=#82b366;strokeWidth=3;" edge="1" parent="1" source="QFeDJpvVkkLOgswEeK5k-8" target="QFeDJpvVkkLOgswEeK5k-17">
          <mxGeometry width="50" height="50" relative="1" as="geometry">
            <mxPoint x="430" y="190" as="sourcePoint" />
            <mxPoint x="421.5" y="103" as="targetPoint" />
          </mxGeometry>
        </mxCell>
        <mxCell id="QFeDJpvVkkLOgswEeK5k-12" value="" style="shape=image;verticalLabelPosition=bottom;labelBackgroundColor=default;verticalAlign=top;aspect=fixed;imageAspect=0;image=https://upload.wikimedia.org/wikipedia/commons/1/1d/ESP32_Espressif_ESP-WROOM-32_Dev_Board_%282%29.jpg;" vertex="1" parent="1">
          <mxGeometry x="580" y="23" width="101.39" height="79.25" as="geometry" />
        </mxCell>
        <mxCell id="QFeDJpvVkkLOgswEeK5k-17" value="MQTT BROKER" style="rounded=0;whiteSpace=wrap;html=1;" vertex="1" parent="1">
          <mxGeometry x="387.25" y="26.5" width="82.75" height="69" as="geometry" />
        </mxCell>
        <mxCell id="QFeDJpvVkkLOgswEeK5k-18" value="" style="endArrow=classic;startArrow=classic;html=1;rounded=0;entryX=0;entryY=0.5;entryDx=0;entryDy=0;fillColor=#d5e8d4;strokeColor=#82b366;strokeWidth=3;" edge="1" parent="1" source="QFeDJpvVkkLOgswEeK5k-17" target="QFeDJpvVkkLOgswEeK5k-12">
          <mxGeometry width="50" height="50" relative="1" as="geometry">
            <mxPoint x="310" y="220" as="sourcePoint" />
            <mxPoint x="360" y="170" as="targetPoint" />
          </mxGeometry>
        </mxCell>
        <mxCell id="QFeDJpvVkkLOgswEeK5k-19" value="" style="endArrow=classic;startArrow=classic;html=1;rounded=0;entryX=0;entryY=0.25;entryDx=0;entryDy=0;exitX=1;exitY=0.25;exitDx=0;exitDy=0;fillColor=#ffe6cc;strokeColor=#d79b00;strokeWidth=3;" edge="1" parent="1" source="QFeDJpvVkkLOgswEeK5k-17" target="QFeDJpvVkkLOgswEeK5k-12">
          <mxGeometry width="50" height="50" relative="1" as="geometry">
            <mxPoint x="310" y="220" as="sourcePoint" />
            <mxPoint x="360" y="170" as="targetPoint" />
          </mxGeometry>
        </mxCell>
        <mxCell id="QFeDJpvVkkLOgswEeK5k-14" value="" style="html=1;strokeWidth=1;shadow=0;dashed=0;shape=mxgraph.ios7.misc.wifi;fillColor=#007AFF;strokeColor=none;buttonText=;strokeColor2=#222222;fontColor=#222222;fontSize=8;verticalLabelPosition=bottom;verticalAlign=top;align=center;sketch=0;" vertex="1" parent="1">
          <mxGeometry x="510" y="37" width="30" height="30" as="geometry" />
        </mxCell>
        <mxCell id="QFeDJpvVkkLOgswEeK5k-20" value="Controller" style="ellipse;whiteSpace=wrap;html=1;" vertex="1" parent="1">
          <mxGeometry x="620" y="61" width="80" height="40" as="geometry" />
        </mxCell>
        <mxCell id="QFeDJpvVkkLOgswEeK5k-21" value="Bridge" style="ellipse;whiteSpace=wrap;html=1;" vertex="1" parent="1">
          <mxGeometry x="220" y="63" width="80" height="40" as="geometry" />
        </mxCell>
        <mxCell id="QFeDJpvVkkLOgswEeK5k-22" value="" style="endArrow=none;html=1;rounded=0;strokeWidth=3;fillColor=#ffe6cc;strokeColor=#d79b00;" edge="1" parent="1">
          <mxGeometry width="50" height="50" relative="1" as="geometry">
            <mxPoint x="520" y="184.71" as="sourcePoint" />
            <mxPoint x="560" y="184.71" as="targetPoint" />
          </mxGeometry>
        </mxCell>
        <mxCell id="QFeDJpvVkkLOgswEeK5k-23" value="Mower Serial Protocol (Binary)" style="text;html=1;align=center;verticalAlign=middle;whiteSpace=wrap;rounded=0;" vertex="1" parent="1">
          <mxGeometry x="570" y="170" width="170" height="30" as="geometry" />
        </mxCell>
        <mxCell id="QFeDJpvVkkLOgswEeK5k-24" value="" style="endArrow=none;html=1;rounded=0;strokeWidth=3;fillColor=#d5e8d4;strokeColor=#82b366;" edge="1" parent="1">
          <mxGeometry width="50" height="50" relative="1" as="geometry">
            <mxPoint x="520" y="214.71" as="sourcePoint" />
            <mxPoint x="560" y="214.71" as="targetPoint" />
          </mxGeometry>
        </mxCell>
        <mxCell id="QFeDJpvVkkLOgswEeK5k-25" value="HomeAssistant MQTT&lt;div&gt;Discovery &amp;amp; Entities (JSON)&lt;/div&gt;" style="text;html=1;align=center;verticalAlign=middle;whiteSpace=wrap;rounded=0;" vertex="1" parent="1">
          <mxGeometry x="570" y="200" width="170" height="30" as="geometry" />
        </mxCell>
        <mxCell id="QFeDJpvVkkLOgswEeK5k-1" value="" style="shape=image;verticalLabelPosition=bottom;labelBackgroundColor=default;verticalAlign=top;aspect=fixed;imageAspect=0;image=https://www.ambrogio.co.uk/wp-content/uploads/2020/01/TWENTY-ELITE-low.jpg;" vertex="1" parent="1">
          <mxGeometry x="40" y="160" width="135" height="90" as="geometry" />
        </mxCell>
      </root>
    </mxGraphModel>
  </diagram>
</mxfile>
